<?xml version="1.0" encoding="utf-8"?>
<!-- Generator: Adobe Illustrator 18.1.1, SVG Export Plug-In . SVG Version: 6.00 Build 0)  -->
<svg version="1.1" id="Layer_1" xmlns="http://www.w3.org/2000/svg" xmlns:xlink="http://www.w3.org/1999/xlink" x="0px" y="0px"
	 viewBox="0 0 399.9 73.3" enable-background="new 0 0 399.9 73.3" xml:space="preserve">
<g>
	<path fill="#FFFFFF" d="M123.4,64.6l-16.5-20.9l-4.4,5.1v15.8h-8.7V15.3h8.7v23.4l19.3-23.4h10.7l-20,23.2l21.6,26.1H123.4z"/>
	<path fill="#FFFFFF" d="M138.7,19.8c0-2.7,2.1-4.8,4.8-4.8s4.8,2.1,4.8,4.8c0,2.7-2.1,4.8-4.8,4.8S138.7,22.4,138.7,19.8z
		 M139.6,64.6V28.9h7.8v35.7H139.6z"/>
	<path fill="#FFFFFF" d="M157.4,64.6V15.3h7.8v49.3H157.4z"/>
	<path fill="#FFFFFF" d="M175.3,64.6V15.3h7.8v49.3H175.3z"/>
	<path fill="#FFFFFF" d="M193.1,64.6V28.9h7.8v5.2c2.7-3.4,7-6.1,11.6-6.1v7.7c-0.7-0.1-1.4-0.2-2.4-0.2c-3.3,0-7.7,2.2-9.2,4.8
		v24.3H193.1z"/>
	<path fill="#FFFFFF" d="M235,64.6l-20.2-49.3h4.9l18,44.6l17.9-44.6h4.9l-20.2,49.3H235z"/>
	<path fill="#FFFFFF" d="M266.5,20.3c0-1.6,1.4-2.9,3-2.9c1.6,0,3,1.3,3,2.9c0,1.6-1.3,3-3,3C267.9,23.3,266.5,22,266.5,20.3z
		 M267.6,64.6V28.9h3.8v35.7H267.6z"/>
	<path fill="#FFFFFF" d="M309.7,64.6v-5.7c-2.5,3.7-7.1,6.6-12.4,6.6c-9.5,0-15.9-7.2-15.9-18.7c0-11.3,6.4-18.8,15.9-18.8
		c5.1,0,9.6,2.6,12.4,6.7V15.3h3.9v49.3H309.7z M309.7,55.7V38c-2.1-3.5-6.7-6.5-11.8-6.5c-7.9,0-12.5,6.7-12.5,15.3
		s4.6,15.2,12.5,15.2C303,62.1,307.7,59.1,309.7,55.7z"/>
	<path fill="#FFFFFF" d="M323.6,46.7c0-10.4,7.2-18.7,17.2-18.7c10.9,0,16.9,8.6,16.9,18.9v1h-29.9c0.4,7.8,5.5,14.2,14,14.2
		c4.5,0,8.7-1.7,11.7-5l2,2.5c-3.5,3.7-8.1,5.8-14,5.8C331,65.5,323.6,57.8,323.6,46.7z M340.7,31.4c-8.4,0-12.6,7.4-12.9,13.6h26
		C353.7,38.9,349.7,31.4,340.7,31.4z"/>
	<path fill="#FFFFFF" d="M365.6,46.7c0-10.4,6.7-18.7,17.1-18.7c10.6,0,17.2,8.3,17.2,18.7c0,10.4-6.7,18.8-17.2,18.8
		C372.2,65.5,365.6,57.2,365.6,46.7z M395.7,46.7c0-7.9-4.7-15.2-13.1-15.2c-8.3,0-13,7.3-13,15.2c0,8,4.7,15.3,13,15.3
		C391.1,62.1,395.7,54.7,395.7,46.7z"/>
</g>
<polygon fill="#DA3610" points="73.3,73.3 0,63.3 0,10 73.3,0 "/>
<polygon fill="#FFFFFF" points="29,26.7 29,47.3 48.3,37.7 "/>
</svg>
