<?xml version="1.0" encoding="utf-8"?>
<!-- Generator: Adobe Illustrator 18.1.1, SVG Export Plug-In . SVG Version: 6.00 Build 0)  -->
<svg version="1.1" id="Layer_1" xmlns="http://www.w3.org/2000/svg" xmlns:xlink="http://www.w3.org/1999/xlink" x="0px" y="0px"
	 viewBox="0 0 592.3 73.3" enable-background="new 0 0 592.3 73.3" xml:space="preserve">
<g>
	<path fill="#FFFFFF" d="M123.4,61.1l-16.5-20.9l-4.4,5.1v15.8h-8.7V11.7h8.7v23.4l19.3-23.4h10.7l-20,23.2l21.6,26.1H123.4z"/>
	<path fill="#FFFFFF" d="M138.7,16.2c0-2.7,2.1-4.8,4.8-4.8s4.8,2.1,4.8,4.8c0,2.7-2.1,4.8-4.8,4.8S138.7,18.8,138.7,16.2z
		 M139.6,61.1V25.4h7.8v35.7H139.6z"/>
	<path fill="#FFFFFF" d="M157.4,61.1V11.7h7.8v49.3H157.4z"/>
	<path fill="#FFFFFF" d="M175.3,61.1V11.7h7.8v49.3H175.3z"/>
	<path fill="#FFFFFF" d="M193.1,61.1V25.4h7.8v5.2c2.7-3.4,7-6.1,11.6-6.1v7.7c-0.7-0.1-1.4-0.2-2.4-0.2c-3.3,0-7.7,2.2-9.2,4.8
		v24.3H193.1z"/>
	<path fill="#FFFFFF" d="M235,61.1l-20.2-49.3h4.9l18,44.6l17.9-44.6h4.9l-20.2,49.3H235z"/>
	<path fill="#FFFFFF" d="M266.5,16.8c0-1.6,1.4-2.9,3-2.9c1.6,0,3,1.3,3,2.9c0,1.6-1.3,3-3,3C267.9,19.7,266.5,18.4,266.5,16.8z
		 M267.6,61.1V25.4h3.8v35.7H267.6z"/>
	<path fill="#FFFFFF" d="M309.7,61.1v-5.7c-2.5,3.7-7.1,6.6-12.4,6.6c-9.5,0-15.9-7.2-15.9-18.7c0-11.3,6.4-18.8,15.9-18.8
		c5.1,0,9.6,2.6,12.4,6.7V11.7h3.9v49.3H309.7z M309.7,52.1V34.4c-2.1-3.5-6.7-6.5-11.8-6.5c-7.9,0-12.5,6.7-12.5,15.3
		s4.6,15.2,12.5,15.2C303,58.5,307.7,55.5,309.7,52.1z"/>
	<path fill="#FFFFFF" d="M323.6,43.2c0-10.4,7.2-18.7,17.2-18.7c10.9,0,16.9,8.6,16.9,18.9v1h-29.9c0.4,7.8,5.5,14.2,14,14.2
		c4.5,0,8.7-1.7,11.7-5l2,2.5c-3.5,3.7-8.1,5.8-14,5.8C331,62,323.6,54.2,323.6,43.2z M340.7,27.8c-8.4,0-12.6,7.4-12.9,13.6h26
		C353.7,35.3,349.7,27.8,340.7,27.8z"/>
	<path fill="#FFFFFF" d="M365.6,43.2c0-10.4,6.7-18.7,17.1-18.7c10.6,0,17.2,8.3,17.2,18.7c0,10.4-6.7,18.8-17.2,18.8
		C372.2,62,365.6,53.6,365.6,43.2z M395.7,43.2c0-7.9-4.7-15.2-13.1-15.2c-8.3,0-13,7.3-13,15.2c0,8,4.7,15.3,13,15.3
		C391.1,58.5,395.7,51.2,395.7,43.2z"/>
</g>
<polygon fill="#DA3610" points="73.3,73.3 0,63.3 0,10 73.3,0 "/>
<polygon fill="#FFFFFF" points="29,26.3 29,47 48.3,37.3 "/>
<g>
	<path fill="#9CD233" d="M427,49.9l9.5-28.3h3.1l-9.5,28.3H427z"/>
	<path fill="#9CD233" d="M451,45.4l2.6-3.6c1.8,2,4.7,3.7,8.4,3.7c3.8,0,5.3-1.9,5.3-3.7c0-5.6-15.5-2.1-15.5-11.9
		c0-4.4,3.8-7.8,9.7-7.8c4.1,0,7.5,1.4,10,3.8l-2.6,3.5c-2.1-2.1-5-3.1-7.8-3.1c-2.7,0-4.5,1.4-4.5,3.3c0,5,15.5,1.9,15.5,11.8
		c0,4.4-3.2,8.3-10.3,8.3C457,49.6,453.4,47.9,451,45.4z"/>
	<path fill="#9CD233" d="M482.5,49.1V26.6h-8.1v-4.1h20.8v4.1h-8.1v22.6H482.5z"/>
	<path fill="#9CD233" d="M515.3,49.1l-2-5.2h-12.2l-2,5.2h-5.3l10.5-26.7h5.8l10.5,26.7H515.3z M507.2,27.1l-4.8,12.7h9.6
		L507.2,27.1z"/>
	<path fill="#9CD233" d="M527.3,49.1V26.6h-8.1v-4.1H540v4.1H532v22.6H527.3z"/>
	<path fill="#9CD233" d="M544,38.6V22.5h4.8v16c0,4.2,2.4,7,6.8,7s6.8-2.8,6.8-7v-16h4.8v16.1c0,6.6-3.8,11-11.6,11
		C547.8,49.6,544,45.2,544,38.6z"/>
	<path fill="#9CD233" d="M571.1,45.4l2.6-3.6c1.8,2,4.7,3.7,8.4,3.7c3.8,0,5.3-1.9,5.3-3.7c0-5.6-15.5-2.1-15.5-11.9
		c0-4.4,3.8-7.8,9.7-7.8c4.1,0,7.5,1.4,10,3.8l-2.6,3.5c-2.1-2.1-5-3.1-7.8-3.1c-2.7,0-4.5,1.4-4.5,3.3c0,5,15.5,1.9,15.5,11.8
		c0,4.4-3.2,8.3-10.3,8.3C577,49.6,573.5,47.9,571.1,45.4z"/>
</g>
</svg>
