<?xml version="1.0" encoding="utf-8"?>
<!-- Generator: Adobe Illustrator 18.1.1, SVG Export Plug-In . SVG Version: 6.00 Build 0)  -->
<svg version="1.1" id="Layer_1" xmlns="http://www.w3.org/2000/svg" xmlns:xlink="http://www.w3.org/1999/xlink" x="0px" y="0px"
	 viewBox="0 0 306.5 50" enable-background="new 0 0 306.5 50" xml:space="preserve">
<g>
	<path fill="none" d="M10.1,17.9c-1,1.7-2.8,2.7-4.7,2.7c-0.4,0-0.8-0.1-1.2-0.2c-0.3,1.5-0.5,3-0.5,4.5s0.2,3.1,0.5,4.5
		c0.4-0.1,0.8-0.2,1.2-0.2c1.9,0,3.7,1,4.7,2.7c1.2,2.1,0.8,4.7-0.7,6.4c2.2,2.1,4.9,3.7,7.8,4.5c0.7-2.2,2.7-3.9,5.2-3.9
		c2.5,0,4.5,1.6,5.2,3.9c2.9-0.8,5.6-2.4,7.8-4.5c-1.6-1.7-2-4.3-0.7-6.4c1-1.7,2.8-2.7,4.7-2.7c0.4,0,0.8,0.1,1.2,0.2
		c0.3-1.5,0.5-3,0.5-4.5s-0.2-3.1-0.5-4.5c-0.4,0.1-0.8,0.2-1.2,0.2c-1.9,0-3.7-1-4.7-2.7c-0.7-1.2-0.9-2.7-0.5-4.1
		c0.2-0.9,0.7-1.7,1.3-2.3c-2.2-2.1-4.9-3.7-7.8-4.5c-0.7,2.2-2.7,3.9-5.2,3.9S17.9,9.3,17.2,7c-2.9,0.8-5.6,2.4-7.8,4.5
		c0.6,0.7,1.1,1.4,1.3,2.3C11.1,15.2,10.9,16.7,10.1,17.9z"/>
	<path fill="#08B7E1" d="M2.6,19.9C2.2,21.5,2,23.3,2,25c0,1.7,0.2,3.5,0.7,5.1c-2.5,1.5-3.4,4.8-1.9,7.4c1,1.7,2.8,2.7,4.7,2.7
		c0.9,0,1.8-0.2,2.6-0.7c2.5,2.5,5.6,4.2,8.9,5.1c0.1,3,2.5,5.3,5.4,5.3s5.4-2.4,5.4-5.3c3.3-0.9,6.4-2.7,8.9-5.1
		c0.8,0.4,1.7,0.7,2.6,0.7c1.9,0,3.7-1,4.7-2.7c1.5-2.6,0.6-5.9-1.9-7.4c0.4-1.7,0.7-3.4,0.7-5.1s-0.2-3.5-0.7-5.1
		c2.5-1.5,3.4-4.8,1.9-7.4c-1-1.7-2.8-2.7-4.7-2.7c-0.9,0-1.8,0.2-2.6,0.7c-2.5-2.5-5.6-4.2-8.9-5.1c0-3-2.4-5.4-5.4-5.4
		S17,2.4,16.9,5.3c-3.3,0.9-6.4,2.6-8.9,5.1C7.3,10,6.4,9.8,5.5,9.8c-1.9,0-3.7,1-4.7,2.7C-0.7,15.1,0.1,18.3,2.6,19.9z M17.2,7
		c0.7,2.2,2.7,3.9,5.2,3.9s4.5-1.6,5.2-3.9c2.9,0.8,5.6,2.4,7.8,4.5c-0.6,0.7-1.1,1.4-1.3,2.3c-0.4,1.4-0.2,2.9,0.5,4.1
		c1,1.7,2.8,2.7,4.7,2.7c0.4,0,0.8-0.1,1.2-0.2c0.3,1.5,0.5,3,0.5,4.5s-0.2,3.1-0.5,4.5c-0.4-0.1-0.8-0.2-1.2-0.2
		c-1.9,0-3.7,1-4.7,2.7c-1.2,2.1-0.8,4.7,0.7,6.4c-2.2,2.1-4.9,3.7-7.8,4.5c-0.7-2.2-2.7-3.9-5.2-3.9s-4.5,1.6-5.2,3.9
		c-2.9-0.8-5.6-2.4-7.8-4.5c1.6-1.7,2-4.3,0.7-6.4c-1-1.7-2.8-2.7-4.7-2.7c-0.4,0-0.8,0.1-1.2,0.2c-0.3-1.5-0.5-3-0.5-4.5
		s0.2-3.1,0.5-4.5c0.4,0.1,0.8,0.2,1.2,0.2c1.9,0,3.7-1,4.7-2.7c0.7-1.2,0.9-2.7,0.5-4.1c-0.2-0.9-0.7-1.7-1.3-2.3
		C11.6,9.4,14.3,7.8,17.2,7z"/>
</g>
<g>
	<path fill="#08B7E1" d="M74.7,34h-3.5l-1.4-4.3H63L61.6,34h-2.8L64.7,16h4L74.7,34z M69,27.1l-2.6-8l-2.6,8H69z"/>
	<path fill="#08B7E1" d="M80.1,34h-3.2V16h7.3c2.1,0,3.6,0.5,4.7,1.6c1,1.1,1.5,2.3,1.5,3.7c0,1.6-0.5,3-1.6,4
		c-1.1,1-2.5,1.5-4.2,1.5h-4.5V34z M80.1,24.1h3.8c1,0,1.8-0.2,2.3-0.7c0.5-0.5,0.8-1.1,0.8-2c0-0.7-0.2-1.4-0.7-1.9
		c-0.5-0.5-1.4-0.8-2.6-0.8h-3.5V24.1z"/>
	<path fill="#08B7E1" d="M105.9,34h-3.5l-1.4-4.3h-6.9L92.7,34h-2.8L95.9,16h4L105.9,34z M100.1,27.1l-2.6-8l-2.6,8H100.1z"/>
	<path fill="#08B7E1" d="M117.5,27.7l3,0.3c-0.2,1.8-0.9,3.3-2.1,4.4c-1.2,1.2-2.8,1.7-4.7,1.7c-1.6,0-3-0.4-4-1.2
		c-1-0.8-1.8-1.9-2.4-3.3s-0.8-3-0.8-4.7c0-2.7,0.6-5,1.9-6.7c1.3-1.7,3.1-2.6,5.3-2.6c1.8,0,3.3,0.5,4.4,1.6s1.9,2.7,2.2,4.7
		l-3,0.3c-0.6-2.7-1.8-4.1-3.6-4.1c-1.2,0-2.1,0.6-2.8,1.7c-0.7,1.1-1,2.8-1,4.9c0,2.2,0.4,3.8,1.1,4.9c0.7,1.1,1.7,1.7,2.8,1.7
		c0.9,0,1.8-0.4,2.4-1.1C117,29.7,117.4,28.8,117.5,27.7z"/>
	<path fill="#08B7E1" d="M136.3,34h-3.2v-7.8h-6.8V34H123V16h3.2v7.4h6.8V16h3.2V34z"/>
	<path fill="#08B7E1" d="M151.9,34h-11.6V16h11.5v2.7h-8.3v4.9h6.7v2.6h-6.7v5h8.4V34z"/>
	<path fill="#08B7E1" d="M171.4,27.7l3,0.3c-0.2,1.8-0.9,3.3-2.1,4.4c-1.2,1.2-2.8,1.7-4.7,1.7c-1.6,0-3-0.4-4-1.2
		c-1-0.8-1.8-1.9-2.4-3.3s-0.8-3-0.8-4.7c0-2.7,0.6-5,1.9-6.7c1.3-1.7,3.1-2.6,5.3-2.6c1.8,0,3.3,0.5,4.4,1.6s1.9,2.7,2.2,4.7
		l-3,0.3c-0.6-2.7-1.8-4.1-3.6-4.1c-1.2,0-2.1,0.6-2.8,1.7c-0.7,1.1-1,2.8-1,4.9c0,2.2,0.4,3.8,1.1,4.9c0.7,1.1,1.7,1.7,2.8,1.7
		c0.9,0,1.8-0.4,2.4-1.1C170.9,29.7,171.3,28.8,171.4,27.7z"/>
	<path fill="#08B7E1" d="M190.9,34h-3.5l-1.4-4.3h-6.9l-1.4,4.3H175l5.9-17.9h4L190.9,34z M185.1,27.1l-2.6-8l-2.6,8H185.1z"/>
	<path fill="#08B7E1" d="M191.2,29.6l3.1-0.7c0.4,1.8,1.8,2.7,4.3,2.7c1.1,0,2-0.2,2.6-0.7c0.6-0.5,0.9-1,0.9-1.7
		c0-0.5-0.1-0.9-0.4-1.4c-0.3-0.4-0.9-0.7-1.8-1l-3.4-0.9c-1.2-0.3-2-0.7-2.6-1c-0.6-0.4-1-0.9-1.3-1.6c-0.3-0.7-0.5-1.5-0.5-2.3
		c0-1.6,0.6-2.9,1.8-3.9c1.2-1,2.7-1.5,4.6-1.5c1.5,0,2.9,0.3,4.1,1c1.2,0.7,2,1.6,2.3,2.9l-3.1,0.8c-0.5-1.4-1.6-2-3.3-2
		c-1,0-1.8,0.2-2.3,0.6c-0.5,0.4-0.8,1-0.8,1.6c0,1,0.8,1.7,2.5,2.2l3,0.8c1.8,0.5,3.1,1.1,3.7,2.1c0.6,0.9,0.9,1.9,0.9,3
		c0,1.8-0.7,3.1-2,4.2c-1.3,1-3,1.5-5.2,1.5c-1.8,0-3.3-0.4-4.7-1.1C192.5,32.4,191.6,31.2,191.2,29.6z"/>
	<path fill="#08B7E1" d="M206.5,29.6l3.1-0.7c0.4,1.8,1.8,2.7,4.3,2.7c1.1,0,2-0.2,2.6-0.7c0.6-0.5,0.9-1,0.9-1.7
		c0-0.5-0.1-0.9-0.4-1.4c-0.3-0.4-0.9-0.7-1.8-1l-3.4-0.9c-1.2-0.3-2-0.7-2.6-1c-0.6-0.4-1-0.9-1.3-1.6c-0.3-0.7-0.5-1.5-0.5-2.3
		c0-1.6,0.6-2.9,1.8-3.9c1.2-1,2.7-1.5,4.6-1.5c1.5,0,2.9,0.3,4.1,1c1.2,0.7,2,1.6,2.3,2.9l-3.1,0.8c-0.5-1.4-1.6-2-3.3-2
		c-1,0-1.8,0.2-2.3,0.6c-0.5,0.4-0.8,1-0.8,1.6c0,1,0.8,1.7,2.5,2.2l3,0.8c1.8,0.5,3.1,1.1,3.7,2.1c0.6,0.9,0.9,1.9,0.9,3
		c0,1.8-0.7,3.1-2,4.2c-1.3,1-3,1.5-5.2,1.5c-1.8,0-3.3-0.4-4.7-1.1C207.9,32.4,207,31.2,206.5,29.6z"/>
	<path fill="#08B7E1" d="M237.7,34h-3.5l-1.4-4.3h-6.9l-1.4,4.3h-2.8l5.9-17.9h4L237.7,34z M232,27.1l-2.6-8l-2.6,8H232z"/>
	<path fill="#08B7E1" d="M253.4,34h-3.1l-6.8-11.4c-0.1-0.2-0.3-0.5-0.5-0.9c-0.1-0.2-0.3-0.5-0.5-0.8V34h-2.6V16h3.6l6.3,10.6
		c0.1,0.1,0.4,0.7,1.1,1.9V16h2.5V34z"/>
	<path fill="#08B7E1" d="M257.3,34V16h6.6c2.4,0,4.4,0.9,5.9,2.6s2.2,3.9,2.2,6.4s-0.8,4.7-2.3,6.4S266,34,263.1,34H257.3z
		 M260.6,31.3h2.7c1.4,0,2.7-0.5,3.7-1.6s1.5-2.7,1.5-4.8c0-1.8-0.4-3.2-1.3-4.4c-0.9-1.2-2-1.8-3.5-1.8h-3.1V31.3z"/>
	<path fill="#08B7E1" d="M288.9,34h-3.4l-2.8-7.4h-4.5V34H275V16h7.8c2.2,0,3.8,0.5,4.8,1.5c1,1,1.5,2.2,1.5,3.8
		c0,2.3-1.1,3.9-3.2,4.8L288.9,34z M278.2,24h4c1.2,0,2-0.2,2.6-0.7s0.9-1.2,0.9-2c0-0.8-0.3-1.4-0.8-1.9c-0.6-0.5-1.3-0.7-2.4-0.7
		h-4.3V24z"/>
	<path fill="#08B7E1" d="M306.3,34h-3.5l-1.4-4.3h-6.9l-1.4,4.3h-2.8l5.9-17.9h4L306.3,34z M300.5,27.1l-2.6-8l-2.6,8H300.5z"/>
</g>
</svg>
